<?xml version="1.0" standalone="no"?>
<!DOCTYPE svg PUBLIC "-//W3C//DTD SVG 20010904//EN"
 "http://www.w3.org/TR/2001/REC-SVG-20010904/DTD/svg10.dtd">
<svg version="1.0" xmlns="http://www.w3.org/2000/svg"
 width="365.000000pt" height="270.000000pt" viewBox="0 0 365.000000 270.000000"
 preserveAspectRatio="xMidYMid meet">

<g transform="translate(0.000000,270.000000) scale(0.100000,-0.100000)"
fill="#000000" stroke="none">
<path d="M3244 2661 c-41 -25 -62 -75 -44 -105 8 -11 27 -45 43 -75 23 -40 40
-58 71 -72 84 -38 193 -15 217 47 19 51 -18 108 -78 119 -24 4 -50 22 -83 56
-53 54 -77 60 -126 30z"/>
<path d="M2760 2595 c-193 -43 -333 -141 -399 -278 -37 -79 -50 -128 -17 -67
13 25 40 61 60 79 46 44 83 45 178 1 94 -43 169 -49 269 -21 41 11 88 21 103
21 96 0 214 -164 251 -348 l17 -83 -28 -41 c-40 -58 -140 -144 -203 -175 -59
-30 -147 -36 -272 -19 -64 8 -65 8 -96 -23 -33 -33 -58 -33 -68 0 -5 16 -16
19 -60 19 -59 0 -148 29 -189 61 l-25 19 -6 -47 c-18 -130 -49 -210 -131 -334
-89 -135 -134 -262 -134 -379 0 -273 343 -420 730 -313 260 72 411 310 490
775 17 102 24 123 54 162 27 35 76 149 76 176 0 3 -20 4 -45 2 l-45 -4 0 56 0
57 50 31 c34 21 49 36 46 47 -2 9 -7 42 -11 73 -19 168 -102 376 -182 456 -74
74 -148 105 -258 109 -53 1 -117 -3 -155 -12z"/>
<path d="M2513 2074 c-23 -10 -13 -31 17 -37 38 -8 62 1 58 22 -3 16 -50 25
-75 15z"/>
<path d="M2807 2073 c-13 -13 -7 -23 26 -43 63 -39 95 -14 34 28 -35 23 -49
27 -60 15z"/>
<path d="M2507 1933 c-14 -13 -6 -33 13 -33 13 0 20 7 20 20 0 19 -20 27 -33
13z"/>
<path d="M2785 1930 c-8 -13 14 -42 26 -34 5 3 9 14 9 25 0 20 -24 26 -35 9z"/>
<path d="M502 1665 c-203 -44 -388 -216 -446 -414 -41 -139 -30 -281 34 -462
21 -58 41 -124 44 -145 10 -57 20 -71 41 -54 21 18 33 4 37 -45 3 -34 6 -40
26 -40 13 0 28 -8 33 -17 15 -27 21 -166 11 -253 -10 -91 -8 -105 19 -105 22
0 21 -10 23 154 1 111 3 130 19 140 14 9 22 6 43 -22 16 -20 34 -32 50 -32 17
0 26 -7 31 -27 10 -37 10 -112 0 -205 -8 -75 -8 -78 12 -78 20 0 21 5 21 94 0
52 4 97 9 100 5 3 12 21 15 41 8 40 23 54 33 28 4 -10 11 -21 17 -25 7 -4 13
-64 16 -145 5 -130 6 -138 25 -138 19 0 20 8 25 123 4 107 8 126 24 138 25 18
46 2 46 -36 0 -33 9 -43 27 -29 7 6 13 31 13 55 0 49 14 64 38 40 13 -13 17
-36 17 -99 0 -45 4 -88 8 -95 19 -28 27 5 28 111 1 125 8 162 29 162 11 0 17
-15 20 -49 3 -27 11 -51 18 -54 15 -5 15 2 12 101 -1 58 2 84 14 102 9 14 20
25 25 25 19 0 34 -63 39 -163 3 -81 8 -110 19 -114 8 -3 16 -3 19 -1 2 3 6 73
7 156 2 106 6 155 15 164 10 10 15 10 22 -2 17 -27 37 9 69 120 16 58 41 146
56 195 32 105 39 263 16 355 -54 220 -238 399 -456 445 -86 18 -179 18 -263 0z
m206 -401 c111 -46 162 -172 110 -274 -24 -45 -76 -93 -115 -105 -18 -5 -22
-3 -17 9 4 10 -6 31 -25 53 -18 21 -37 44 -43 52 -7 8 -12 26 -13 40 0 22 -5
26 -28 26 -27 -1 -28 1 -22 35 6 36 6 36 -29 36 -40 0 -45 3 -51 31 -5 27 50
80 101 98 51 19 87 18 132 -1z m-641 -221 c-2 -21 -4 -6 -4 32 0 39 2 55 4 38
2 -18 2 -50 0 -70z m1140 35 c-2 -13 -4 -3 -4 22 0 25 2 35 4 23 2 -13 2 -33
0 -45z m-60 5 c-3 -10 -5 -2 -5 17 0 19 2 27 5 18 2 -10 2 -26 0 -35z m-1015
-46 c-9 -18 -11 -14 -11 28 1 46 1 48 11 22 7 -20 7 -35 0 -50z m65 26 c-3
-10 -5 -4 -5 12 0 17 2 24 5 18 2 -7 2 -21 0 -30z m-100 -15 c-3 -7 -5 -2 -5
12 0 14 2 19 5 13 2 -7 2 -19 0 -25z m83 8 c0 -3 -4 -8 -10 -11 -5 -3 -10 -1
-10 4 0 6 5 11 10 11 6 0 10 -2 10 -4z"/>
</g>
</svg>
